<svg width="16" height="16" viewBox="0 0 16 16" fill="none" xmlns="http://www.w3.org/2000/svg">
<path d="M4.76666 14.0667C4.6 13.9 4.51666 13.7027 4.51666 13.4747C4.51666 13.2471 4.6 13.05 4.76666 12.8833L9.65 8.00001L4.75 3.10001C4.59444 2.94445 4.51666 2.75001 4.51666 2.51667C4.51666 2.28334 4.6 2.08334 4.76666 1.91667C4.93333 1.75001 5.13066 1.66667 5.35866 1.66667C5.58622 1.66667 5.78333 1.75001 5.95 1.91667L11.55 7.53334C11.6167 7.60001 11.664 7.67223 11.692 7.75001C11.7196 7.82778 11.7333 7.91112 11.7333 8.00001C11.7333 8.08889 11.7196 8.17223 11.692 8.25001C11.664 8.32778 11.6167 8.40001 11.55 8.46667L5.93333 14.0833C5.77777 14.2389 5.58622 14.3167 5.35866 14.3167C5.13066 14.3167 4.93333 14.2333 4.76666 14.0667Z" fill="#929292"/>
</svg>
